<?xml version="1.0" encoding="utf-8"?>
<!-- Generator: Adobe Illustrator 16.0.0, SVG Export Plug-In . SVG Version: 6.00 Build 0)  -->
<!DOCTYPE svg PUBLIC "-//W3C//DTD SVG 1.1//EN" "http://www.w3.org/Graphics/SVG/1.1/DTD/svg11.dtd">
<svg version="1.1" id="Layer_1" xmlns="http://www.w3.org/2000/svg" xmlns:xlink="http://www.w3.org/1999/xlink" x="0px" y="0px"
	 width="24px" height="24px" viewBox="-49.167 0 24 24" enable-background="new -49.167 0 24 24" xml:space="preserve">
<g>
	<path d="M-30.275,18.78h-2.789v-4.371c0-1.042-0.021-2.383-1.452-2.383c-1.453,0-1.677,1.136-1.677,2.309v4.445h-2.791V9.794h2.679
		v1.228h0.041c0.371-0.708,1.282-1.452,2.643-1.452c2.825,0,3.346,1.862,3.346,4.282V18.78z M-40.513,6.945
		c0,0.895-0.727,1.62-1.621,1.62s-1.616-0.726-1.616-1.62c0-0.892,0.722-1.619,1.616-1.619S-40.513,6.053-40.513,6.945
		 M-43.53,9.794h2.795v8.986h-2.795V9.794z"/>
</g>
<path fill="none" d="M-49.012,0.053h24v24h-24V0.053z"/>
<path fill="none" d="M-49.012,0.053h24v24h-24V0.053z"/>
</svg>
