<?xml version="1.0" encoding="utf-8"?>
<!-- Generator: Adobe Illustrator 16.0.0, SVG Export Plug-In . SVG Version: 6.00 Build 0)  -->
<!DOCTYPE svg PUBLIC "-//W3C//DTD SVG 1.1//EN" "http://www.w3.org/Graphics/SVG/1.1/DTD/svg11.dtd">
<svg version="1.1" id="Layer_1" xmlns="http://www.w3.org/2000/svg" xmlns:xlink="http://www.w3.org/1999/xlink" x="0px" y="0px"
	 width="24px" height="24px" viewBox="-87.667 0 24 24" enable-background="new -87.667 0 24 24" xml:space="preserve">
<path fill="none" d="M-87.667,0h24v24h-24V0z"/>
<path fill="none" d="M-87.667,0h24v24h-24V0z"/>
<path d="M-69.73,7.686c0.646-0.078,1.259-0.249,1.833-0.503c-0.428,0.64-0.969,1.2-1.592,1.649c0.006,0.139,0.01,0.274,0.01,0.415
	c0,4.211-3.206,9.068-9.069,9.068c-1.801,0-3.476-0.527-4.887-1.434c0.251,0.029,0.506,0.045,0.761,0.045
	c1.493,0,2.869-0.508,3.958-1.365c-1.393-0.025-2.57-0.945-2.976-2.211c0.193,0.035,0.396,0.057,0.6,0.057
	c0.291,0,0.571-0.041,0.838-0.111c-1.458-0.293-2.555-1.583-2.555-3.126c0-0.015,0-0.027,0-0.04c0.43,0.238,0.92,0.381,1.443,0.398
	c-0.855-0.571-1.417-1.546-1.417-2.652c0-0.585,0.158-1.133,0.432-1.603c1.573,1.927,3.921,3.195,6.569,3.33
	c-0.055-0.234-0.083-0.476-0.083-0.727c0-1.761,1.426-3.189,3.189-3.189c0.916,0,1.744,0.39,2.325,1.009
	c0.727-0.143,1.407-0.409,2.024-0.775C-68.567,6.666-69.071,7.29-69.73,7.686"/>
</svg>
