<?xml version="1.0" encoding="utf-8"?>
<!-- Generator: Adobe Illustrator 17.0.0, SVG Export Plug-In . SVG Version: 6.00 Build 0)  -->
<!DOCTYPE svg PUBLIC "-//W3C//DTD SVG 1.1//EN" "http://www.w3.org/Graphics/SVG/1.1/DTD/svg11.dtd">
<svg version="1.1" id="Layer_1" xmlns="http://www.w3.org/2000/svg" xmlns:xlink="http://www.w3.org/1999/xlink" x="0px" y="0px"
	 width="230.667px" height="246.667px" viewBox="0 0 230.667 246.667" enable-background="new 0 0 230.667 246.667"
	 xml:space="preserve">
<g opacity="0.2">
	<path fill="#FF4081" d="M107.089,124.937c0.06,1.09,0.12,2.05,0.18,3.01c0.43,6.69,2.82,12.52,7.54,17.37
		c0.98,1.02,1.8,1.1,2.74,0.07c0.47-0.51,0.95-0.99,1.4-1.51c4.75-5.46,6.38-11.97,6.41-19.01 M133.049,106.467
		c-2.25-1.65-2.37-2.1-1.32-4.66c2.09-5.14,3.47-10.48,3.74-16.02c0.84-17.07-4.26-28.73-17.59-40.03c-1.18-1-1.95-1.03-3.17-0.07
		c-3.86,3-7.06,6.58-9.59,10.71c-9.5,15.51-10.81,28.79-4.22,45.69c0.74,1.89,0.44,3.02-1.17,4.2
		c-8.54,6.31-12.45,14.79-11.63,25.41c0.05,0.62,0.23,1.24,0.4,2.11c0.48-0.47,0.68-0.65,0.85-0.85c0.32-0.36,0.65-0.72,0.94-1.11
		c4.57-6.07,10.69-9.76,17.91-11.85c2.59-0.76,4.97-0.94,6.99,1.25c0.79,0.86,1.58,0.73,2.28-0.08c1.67-1.94,3.72-2.08,5.99-1.36
		c1.32,0.41,2.67,0.71,3.96,1.18c6.73,2.45,12.07,6.72,16.13,12.64c0.21-0.02,0.42-0.04,0.62-0.06c0.13-1.75,0.42-3.51,0.35-5.25
		C144.179,119.227,140.429,111.887,133.049,106.467z M117.219,83.537c-3.81,0-6.9-3.09-6.9-6.9c0-3.8,3.09-6.89,6.9-6.89
		c3.8,0,6.89,3.09,6.89,6.89C124.109,80.447,121.019,83.537,117.219,83.537z"/>
</g>
<g>
	<path fill="#FF4081" d="M128.249,127.27c-0.785,3.409-1.272,6.436-2.196,9.324c-1.479,4.621-4.312,8.373-8.123,11.399
		c-1.35,1.072-2.45,0.828-3.669-0.205c-5.745-4.868-8.88-11.05-9.475-18.542c-0.042-0.527-0.121-1.05-0.233-2.001
		c-1.389,0.914-2.643,1.571-3.695,2.466c-2.943,2.504-5.473,5.344-7.14,8.914c-0.392,0.839-1.428,1.377-2.168,2.054
		c-0.668-0.742-1.638-1.374-1.959-2.244c-4.136-11.213-0.371-22.966,8.196-30.31c1.143-0.98,1.303-1.649,0.842-2.983
		c-4.787-13.818-3.872-27.269,2.85-40.27c3.025-5.85,7.366-10.583,12.581-14.59c1.573-1.209,2.789-1.226,4.302-0.069
		c6.072,4.638,10.805,10.34,13.927,17.335c5.489,12.297,6.011,24.825,1.572,37.524c-0.507,1.451-0.284,2.228,0.879,3.178
		c8.672,7.084,12.041,19.236,8.346,29.8c-0.099,0.283-0.14,0.635-0.334,0.827c-0.641,0.632-1.298,1.593-2.03,1.673
		c-0.56,0.061-1.354-0.942-1.854-1.613c-1.954-2.626-3.674-5.444-5.798-7.918C131.791,129.527,129.926,128.54,128.249,127.27z
		 M140.025,133.439c0.179-0.018,0.358-0.037,0.538-0.055c0.11-1.524,0.363-3.053,0.306-4.571c-0.295-7.92-3.567-14.309-9.991-19.03
		c-1.957-1.438-2.066-1.827-1.155-4.06c1.828-4.481,3.026-9.127,3.263-13.959c0.73-14.861-3.708-27.633-15.325-37.477
		c-1.024-0.868-1.694-0.896-2.761-0.064c-3.357,2.616-6.147,5.734-8.353,9.335c-8.276,13.51-9.415,27.688-3.676,42.412
		c0.642,1.647,0.38,2.628-1.016,3.659c-7.441,5.495-10.845,12.881-10.131,22.127c0.042,0.544,0.202,1.079,0.35,1.842
		c0.412-0.412,0.586-0.569,0.74-0.744c0.279-0.314,0.563-0.626,0.815-0.962c3.978-5.289,9.314-8.503,15.598-10.33
		c2.257-0.656,4.337-0.818,6.092,1.09c0.689,0.749,1.374,0.643,1.986-0.067c1.457-1.687,3.244-1.808,5.221-1.186
		c1.143,0.36,2.319,0.623,3.443,1.031C131.836,124.563,136.488,128.284,140.025,133.439z M108.262,125.872
		c0.057,0.95,0.104,1.783,0.158,2.616c0.377,5.83,2.459,10.91,6.564,15.134c0.86,0.886,1.571,0.958,2.394,0.058
		c0.404-0.441,0.828-0.865,1.22-1.316c4.135-4.755,5.551-10.423,5.575-16.553c-2.17-1.177-4.132-1.259-5.99,0.672
		c-1.217,1.265-2.635,1.277-3.929-0.053C112.437,124.565,110.431,124.545,108.262,125.872z"/>
	<path fill="#FF4081" d="M122.969,72.94c3.768,3.784,3.775,9.954,0.014,13.594c-3.754,3.634-9.792,3.588-13.494-0.101
		c-3.865-3.852-3.801-9.562,0.151-13.481C113.537,69.087,119.127,69.082,122.969,72.94z M112.045,75.577
		c-2.285,2.309-2.296,5.895-0.026,8.21c2.289,2.334,6.046,2.345,8.383,0.024c2.313-2.297,2.307-6.097-0.011-8.387
		C118.078,73.141,114.389,73.208,112.045,75.577z"/>
</g>
<g transform="translate(0,-952.36218)">
	<g>
		<path fill="none" stroke="#4A148C" stroke-miterlimit="10" d="M116.216,1120.957c-5.39,0-9.789,4.399-9.789,9.789
			s4.399,9.79,9.789,9.79s9.789-4.4,9.789-9.79S121.606,1120.957,116.216,1120.957z M97.336,1127.25
			c-3.459,0-6.293,2.835-6.293,6.293c0,3.458,2.834,6.293,6.293,6.293s6.293-2.835,6.293-6.293
			C103.63,1130.085,100.795,1127.25,97.336,1127.25z M135.096,1127.25c-3.459,0-6.293,2.835-6.293,6.293
			c0,3.458,2.834,6.293,6.293,6.293s6.293-2.835,6.293-6.293C141.389,1130.085,138.555,1127.25,135.096,1127.25z M97.336,1141.934
			c-6.549,0-11.887,5.339-11.887,11.887c0,0.772,0.626,1.398,1.398,1.398H98.91c-0.573,1.765-0.874,3.641-0.874,5.594
			c0,0.772,0.626,1.398,1.398,1.399h33.564c0.772,0,1.398-0.626,1.398-1.399c0-1.953-0.301-3.829-0.874-5.594h12.062
			c0.772,0,1.398-0.626,1.398-1.398c0-6.549-5.339-11.887-11.887-11.887c-3.437,0-6.53,1.487-8.697,3.824
			c-0.003,0.004-0.018-0.004-0.022,0c-2.902-1.962-6.402-3.125-10.161-3.125s-7.259,1.162-10.161,3.125
			C103.887,1143.412,100.783,1141.934,97.336,1141.934z"/>
	</g>
</g>
<g transform="translate(0,-952.36218)" opacity="0.2">
	<path fill="#4A148C" d="M117.216,1123.957c-5.39,0-9.789,4.399-9.789,9.789s4.399,9.79,9.789,9.79s9.789-4.4,9.789-9.79
		S122.606,1123.957,117.216,1123.957z M98.336,1130.25c-3.459,0-6.293,2.835-6.293,6.293c0,3.458,2.834,6.293,6.293,6.293
		s6.293-2.835,6.293-6.293C104.63,1133.085,101.795,1130.25,98.336,1130.25z M136.096,1130.25c-3.459,0-6.293,2.835-6.293,6.293
		c0,3.458,2.834,6.293,6.293,6.293s6.293-2.835,6.293-6.293C142.389,1133.085,139.555,1130.25,136.096,1130.25z M98.336,1144.934
		c-6.549,0-11.887,5.339-11.887,11.887c0,0.772,0.626,1.398,1.398,1.398H99.91c-0.573,1.765-0.874,3.641-0.874,5.594
		c0,0.772,0.626,1.398,1.398,1.399h33.564c0.772,0,1.398-0.626,1.398-1.399c0-1.953-0.301-3.829-0.874-5.594h12.062
		c0.772,0,1.398-0.626,1.398-1.398c0-6.549-5.339-11.887-11.887-11.887c-3.437,0-6.53,1.487-8.697,3.824
		c-0.003,0.004-0.018-0.004-0.022,0c-2.902-1.962-6.402-3.125-10.161-3.125s-7.259,1.162-10.161,3.125
		C104.887,1146.412,101.783,1144.934,98.336,1144.934z"/>
</g>
<g>
	<g>
		<g>
			<path fill="none" stroke="#4A148C" stroke-miterlimit="10" d="M37.961,162.425c3.116,0,5.644,2.528,5.644,5.645
				c0,3.119-2.528,5.648-5.644,5.648c-3.122,0-5.647-2.529-5.647-5.648C32.314,164.953,34.838,162.425,37.961,162.425z"/>
			<path fill="none" stroke="#4A148C" stroke-miterlimit="10" d="M37.961,205.82c0,0,0.643,0.236,0.643,0.432
				c0,6.09,0,21.569,0,21.569c0,3.97,7.831,4.19,7.831,0.083c0-2.419,0.021-10.51,0.021-10.51l-5.083,0.055v-13.39h5.141
				c0,0,0.031-4.531,0.031-2.54c0,2.108,4.471,2.32,4.471,0.139c0-20.306,0-19.291,0-19.291c0-3.994-3.24-7.234-7.236-7.234h-2.902
				l-2.916,10.565v19.217"/>
			<path fill="none" stroke="#4A148C" stroke-miterlimit="10" d="M38.102,205.82c0,0-0.643,0.236-0.643,0.432
				c0,6.09,0,21.569,0,21.569c0,3.97-7.831,4.19-7.831,0.083c0-9.354-0.11-32.966-0.11-26.384c0,2.108-4.471,2.32-4.471,0.139
				c0-20.306,0-19.291,0-19.291c0-3.994,3.239-7.234,7.236-7.234h2.724l3.095,10.565v19.77"/>
			<rect x="41.789" y="204.499" fill="none" stroke="#4A148C" stroke-miterlimit="10" width="17.095" height="12.435"/>
			<polygon fill="none" stroke="#4A148C" stroke-miterlimit="10" points="36.971,175.134 39.171,175.134 38.102,176.951 
				39.302,180.834 38.03,185.451 36.702,180.927 38.102,176.951 			"/>
		</g>
		<polyline fill="none" stroke="#4A148C" stroke-miterlimit="10" points="47.81,204.059 47.81,203.014 51.167,203.014 
			51.167,204.059 		"/>
	</g>
</g>
<g>
	<path fill="none" stroke="#4A148C" stroke-miterlimit="10" d="M195.391,186.585c4.354,0,7.884-5.68,7.884-10.035
		c0-4.354-3.529-7.883-7.884-7.883c-4.354,0-7.883,3.53-7.883,7.883C187.507,180.905,191.037,186.585,195.391,186.585z"/>
	<path fill="none" stroke="#4A148C" stroke-miterlimit="10" d="M195.391,187.565c-8.201,0-13.231,2.412-14.105,5.561h28.211
		C208.623,189.977,203.592,187.565,195.391,187.565z"/>
	<path fill="none" stroke="#4A148C" stroke-miterlimit="10" d="M210.059,214.169h-29.338c-0.285,0-0.518,0.232-0.518,0.518
		c0,0.286,0.232,0.516,0.518,0.516h29.338c0.286,0,0.517-0.23,0.517-0.516C210.576,214.402,210.345,214.169,210.059,214.169z"/>
	<g>
		<path fill="none" stroke="#4A148C" stroke-miterlimit="10" d="M210.901,194.167h-31.02c-1.211,0-2.197-0.225-2.197,1.008
			l2.584,15.383c0,1.211,0.986,2.609,2.197,2.609h25.852c1.211,0,2.197-2.003,2.194-3.193l2.588-14.312
			C213.098,194.45,212.112,194.167,210.901,194.167z M195.389,202.11c-0.513,0-0.928-0.416-0.928-0.932
			c0-0.513,0.416-0.928,0.928-0.928c0.516,0,0.932,0.416,0.932,0.928C196.321,201.695,195.905,202.11,195.389,202.11z"/>
	</g>
</g>
<g opacity="0.2">
	<path fill="#4A148C" d="M198.391,188.585c4.354,0,7.884-5.68,7.884-10.035c0-4.354-3.529-7.883-7.884-7.883
		c-4.354,0-7.883,3.53-7.883,7.883C190.507,182.905,194.037,188.585,198.391,188.585z"/>
	<path fill="#4A148C" d="M198.391,189.565c-8.201,0-13.231,2.412-14.105,5.561h28.211
		C211.623,191.977,206.592,189.565,198.391,189.565z"/>
	<path fill="#4A148C" d="M213.059,216.169h-29.338c-0.285,0-0.518,0.232-0.518,0.518c0,0.286,0.232,0.516,0.518,0.516h29.338
		c0.286,0,0.517-0.23,0.517-0.516C213.576,216.402,213.345,216.169,213.059,216.169z"/>
	<g>
		<path fill="#4A148C" d="M213.901,196.667h-31.02c-1.211,0-2.197-0.475-2.197,0.758l2.584,15.508c0,1.211,0.986,2.734,2.197,2.734
			h25.852c1.211,0,2.197-2.253,2.194-3.443l2.588-14.187C216.098,196.825,215.112,196.667,213.901,196.667z M198.389,204.11
			c-0.513,0-0.928-0.416-0.928-0.932c0-0.513,0.416-0.928,0.928-0.928c0.516,0,0.932,0.416,0.932,0.928
			C199.321,203.695,198.905,204.11,198.389,204.11z"/>
	</g>
</g>
<path fill="none" stroke="#4A148C" stroke-width="2" stroke-linecap="round" stroke-miterlimit="10" stroke-dasharray="2,8,0,2,5" d="
	M101.188,40.826c0,0-33.259,28.452-18.958,60.835c0,0-17.856,11.683-9.038,38.356"/>
<path fill="none" stroke="#4A148C" stroke-width="2" stroke-linecap="round" stroke-miterlimit="10" stroke-dasharray="2,8,0,2,16" d="
	M101.289,20.99c0,0-46.866,28.37-32.999,75.804c0,0-20.084,8.975-7.579,52.296"/>
<path opacity="0.2" fill="none" stroke="#4A148C" stroke-width="14" stroke-miterlimit="10" d="M103.289,27.99
	c0,0-45.405,28.677-30.999,70.804c0,0-19.084,6.975-6.579,50.296"/>
<path opacity="0.2" fill="none" stroke="#4A148C" stroke-width="14" stroke-miterlimit="10" d="M127.463,27.99
	c0,0,45.405,28.677,30.999,70.804c0,0,19.084,6.975,6.579,50.296"/>
<path fill="none" stroke="#4A148C" stroke-width="2" stroke-linecap="round" stroke-miterlimit="10" stroke-dasharray="2,8,0,2,5" d="
	M130.111,40.826c0,0,33.259,28.452,18.958,60.835c0,0,17.856,11.683,9.038,38.356"/>
<path fill="none" stroke="#4A148C" stroke-width="2" stroke-linecap="round" stroke-miterlimit="10" stroke-dasharray="2,8,0,2,16" d="
	M130.01,20.99c0,0,46.866,28.37,32.999,75.804c0,0,20.084,8.975,7.579,52.296"/>
<g opacity="0.2">
	<g>
		<g>
			<path fill="#4A148C" d="M39.961,163.425c3.116,0,5.644,2.528,5.644,5.645c0,3.119-2.528,5.648-5.644,5.648
				c-3.122,0-5.647-2.529-5.647-5.648C34.314,165.953,36.838,163.425,39.961,163.425z"/>
			<path fill="#4A148C" d="M39.961,206.82c0,0,0.643,0.236,0.643,0.432c0,6.09,0,21.569,0,21.569c0,3.97,7.831,4.19,7.831,0.083
				c0-2.419,0.021-10.51,0.021-10.51l-5.083,0.055v-13.39h5.141c0,0,0.031-4.531,0.031-2.54c0,2.108,4.471,2.32,4.471,0.139
				c0-20.306,0-19.291,0-19.291c0-3.994-3.24-7.234-7.236-7.234h-2.902l-2.916,10.565v19.217"/>
			<path fill="#4A148C" d="M40.102,206.82c0,0-0.643,0.236-0.643,0.432c0,6.09,0,21.569,0,21.569c0,3.97-7.831,4.19-7.831,0.083
				c0-9.354-0.11-32.966-0.11-26.384c0,2.108-4.471,2.32-4.471,0.139c0-20.306,0-19.291,0-19.291c0-3.994,3.239-7.234,7.236-7.234
				h2.724l3.095,10.565v19.77"/>
			<rect x="43.789" y="205.499" fill="#4A148C" width="17.095" height="12.435"/>
			<polygon fill="#4A148C" points="38.971,176.134 41.171,176.134 40.102,177.951 41.302,181.834 40.03,186.451 38.702,181.927 
				40.102,177.951 			"/>
		</g>
		<polyline fill="#4A148C" points="49.81,205.059 49.81,204.014 53.167,204.014 53.167,205.059 		"/>
	</g>
</g>
</svg>
