<?xml version="1.0" encoding="utf-8"?>
<!-- Generator: Adobe Illustrator 17.0.0, SVG Export Plug-In . SVG Version: 6.00 Build 0)  -->
<!DOCTYPE svg PUBLIC "-//W3C//DTD SVG 1.1//EN" "http://www.w3.org/Graphics/SVG/1.1/DTD/svg11.dtd">
<svg version="1.1" id="Layer_1" xmlns="http://www.w3.org/2000/svg" xmlns:xlink="http://www.w3.org/1999/xlink" x="0px" y="0px"
	 width="286.486px" height="243.886px" viewBox="0 0 286.486 243.886" enable-background="new 0 0 286.486 243.886"
	 xml:space="preserve">
<path opacity="0.3" fill="#FFEB3B" d="M237.707,66.702c-5.817-5.724-13.776-9.331-22.362-10.215c0.093-1.082,0.14-2.164,0.14-3.246
	c0-21.036-17.72-38.151-39.512-38.151c-14.567,0-28.04,7.97-34.858,20.21c-3.723-1.571-7.749-2.385-11.856-2.385
	c-8.982,0-18.22,4.2-24.119,10.948c-2.99,3.432-4.91,7.295-5.655,11.262c-4.526-1.291-9.331-1.955-14.16-1.955
	c-27.9,0-42.665,11.193-45.131,34.23c-0.861,8.005,1.687,15.882,7.167,22.188c6.702,7.714,17.359,12.542,28.505,12.926l6.236-0.035
	V93.916c0-4.514,4.573-6.574,8.819-6.574h101.537c3.281,0,7.179,1.14,7.179,6.574v27.97l12.682-0.058
	c20.768,0,34.718-17.103,34.718-33.078C247.038,80.466,243.722,72.636,237.707,66.702z"/>
<rect x="96.342" y="93.83" opacity="0.5" fill="#47C2FC" width="100" height="70"/>
<polygon opacity="0.5" fill="#D50000" points="202.485,202.865 79.699,202.926 92.751,170.605 190.637,170.614 "/>
<path fill="none" stroke="#413F42" stroke-width="4" stroke-linecap="round" stroke-linejoin="round" stroke-miterlimit="10" d="
	M73.738,123.153c-11.154-0.377-21.81-5.209-28.508-12.921c-5.48-6.311-8.026-14.192-7.172-22.192
	C40.526,65.008,55.292,53.809,83.2,53.809c4.817,0,9.623,0.668,14.157,1.956c0.736-3.97,2.656-7.835,5.657-11.267
	c5.895-6.747,15.136-10.939,24.117-10.939c4.1,0,8.127,0.816,11.852,2.383c6.813-12.246,20.296-20.211,34.861-20.211
	c21.786,0,39.513,17.115,39.513,38.154c0,1.08-0.047,2.163-0.139,3.237c8.578,0.892,16.535,4.496,22.353,10.224
	c6.018,5.928,9.335,13.756,9.335,22.041c0,15.976-13.952,33.082-34.722,33.082 M215.979,204.076c0.17,9.59-0.88,15.549-3.119,17.828
	c-0.988,1.007-2.281,1.564-3.638,1.564H72.799c-1.364,0-2.659-0.561-3.65-1.578c-2.225-2.291-3.215-8.257-2.944-17.738
	c0-4.169,1.189-7.231,2.189-9.045c0.368-0.776,8.429-18.621,13.732-30.381l0.245-0.54c0.687-1.489,1.623-3.529,1.623-6.61V99.628
	c0-7.877,6.757-13.815,15.714-13.815h85.839c8.568,0,14.325,5.553,14.325,13.815v57.947c0,3.52,0.951,5.617,1.522,6.87l0.132,0.293
	c4.296,9.911,12.463,28.736,13.284,30.579C215.979,197.647,215.979,200.632,215.979,204.076z M191.621,157.573V99.628
	c0-4.596-3.298-5.558-6.068-5.558H99.714c-3.591,0-7.457,1.739-7.457,5.558l0,57.945 M207.722,204.342c0-0.024,0-0.243,0-0.267
	c0-1.741,0-4.374-0.302-5.089c-0.727-1.595-10.316-23.704-12.848-29.543H89.058c-2.81,6.228-12.812,28.39-13.336,29.465
	c-0.531,0.972-1.26,2.696-1.26,5.36c-0.118,4.204,0.127,8.644,0.55,10.942h132.035C207.5,212.923,207.797,208.478,207.722,204.342z
	 M93.93,175.45l-8.917,21.801c-0.521,1.274-0.373,2.722,0.394,3.864s2.052,1.826,3.428,1.826h105.264"/>
<line fill="#E1F5FE" stroke="#413F42" stroke-width="4" stroke-linecap="round" stroke-linejoin="round" stroke-miterlimit="10" x1="103.588" y1="160.641" x2="164.089" y2="160.641"/>
<line fill="#E1F5FE" stroke="#413F42" stroke-width="4" stroke-linecap="round" stroke-linejoin="round" stroke-miterlimit="10" x1="174.561" y1="159.478" x2="180.378" y2="159.478"/>
<line fill="#E1F5FE" stroke="#413F42" stroke-width="4" stroke-linecap="round" stroke-linejoin="round" stroke-miterlimit="10" x1="196.691" y1="192.275" x2="190.936" y2="178.206"/>
<path fill="none" stroke="#01579B" stroke-width="3" stroke-linecap="round" stroke-linejoin="round" stroke-miterlimit="10" stroke-dasharray="3,13,5,13,17" d="
	M53.801,178.313l20.495-34.072c0,0-57.399,11.12-57.399-62.567c0,0-2.175-50.684,75.457-50.684"/>
<line fill="none" stroke="#01579B" stroke-width="3" stroke-linecap="round" stroke-linejoin="round" stroke-miterlimit="10" stroke-dasharray="3,13,5,13,17" x1="214.498" y1="154.402" x2="236.936" y2="202.926"/>
<path fill="none" stroke="#01579B" stroke-width="3" stroke-linecap="round" stroke-linejoin="round" stroke-miterlimit="10" stroke-dasharray="3,13,5,13,17" d="
	M208.093,144.241c0,0,60.541-9.51,62.036-49.918c1.543-41.704-21.606-56.934-39.598-58.679"/>
</svg>
