<?xml version="1.0" encoding="utf-8"?>
<!-- Generator: Adobe Illustrator 17.0.0, SVG Export Plug-In . SVG Version: 6.00 Build 0)  -->
<!DOCTYPE svg PUBLIC "-//W3C//DTD SVG 1.1//EN" "http://www.w3.org/Graphics/SVG/1.1/DTD/svg11.dtd">
<svg version="1.1" id="Layer_1" xmlns="http://www.w3.org/2000/svg" xmlns:xlink="http://www.w3.org/1999/xlink" x="0px" y="0px"
	 width="310.232px" height="267.33px" viewBox="0 0 310.232 267.33" enable-background="new 0 0 310.232 267.33"
	 xml:space="preserve">
<g>
	<path fill="#413F42" stroke="#FFFFFF" stroke-width="14" stroke-miterlimit="10" d="M251.862,36.019c19.322,0,38.429,0,57.535,0
		c1.197,0,0.971-0.059,0.177,0.607c-2.491,1.897-4.93,3.869-7.508,5.638c-0.653,0.448-1.75,0.331-2.643,0.333
		c-8.61,0.021-17.22-0.043-25.83,0.025c-12.975,0.102-25.95,0.268-38.923,0.489c-0.939,0.016-2.022,0.504-2.768,1.107
		c-1.808,1.46-3.457,3.118-5.171,4.696c0.112,0.245,0.224,0.489,0.336,0.734c21.493,0,42.986,0,64.479,0
		c1.259,0,1.486-0.175,0.246,0.758c-2.497,1.921-4.938,3.924-7.528,5.709c-0.713,0.492-1.873,0.456-2.829,0.458
		c-14.35,0.027-28.7-0.009-43.049,0.029c-12.832,0.034-25.663,0.187-38.494,0.147c-1.435-0.005-3.029-0.68-4.266-1.482
		c-2.263-1.467-4.314-3.26-6.919-5.278c1.156-0.087,1.765-0.171,2.375-0.173c7.628-0.021,15.257,0.024,22.883-0.104
		c1.122-0.019,2.422-0.619,3.306-1.352c1.843-1.527,3.464-3.324,5.508-5.337c-1.066-0.092-1.689-0.193-2.313-0.194
		c-26.434-0.008-52.868-0.01-79.302-0.003c-2.966,0.001-4.57,1.264-4.556,3.511c0.014,2.121,1.549,3.457,4.145,3.463
		c9.894,0.022,19.788-0.049,29.681,0.075c1.441,0.018,3.126,0.566,4.268,1.435c10.212,7.769,20.328,15.666,30.683,23.689
		c-1.407,1.826-2.76,3.583-4.234,5.496c-4.958-3.833-9.775-7.556-14.591-11.281c-4.718-3.649-9.378-7.377-14.192-10.896
		c-1.167-0.853-2.829-1.416-4.273-1.437c-9.061-0.128-18.126-0.022-27.188-0.081c-6.778-0.044-11.516-4.68-11.296-10.898
		c0.17-4.809,3.769-8.984,8.521-9.796c1.183-0.202,2.402-0.273,3.605-0.276c8.836-0.022,17.674,0.048,26.509-0.075
		c1.377-0.019,2.979-0.56,4.075-1.391c8.902-6.753,17.708-13.633,26.546-20.471c0.704-0.545,1.426-1.065,2.282-1.703
		c1.403,1.78,2.745,3.483,4.268,5.415c-7.636,5.92-15.185,11.772-23.198,17.984c1.088,0.11,1.683,0.223,2.278,0.222
		c14.651-0.025,29.302-0.042,43.952-0.149L251.862,36.019z"/>
</g>
<polygon opacity="0.5" fill="#EC407A" points="170.434,49.875 185.841,49.867 207.188,66.705 201.601,73.491 "/>
<path opacity="0.5" fill="#EC407A" d="M211.692,49.83h-45.443l-29.413,0.024c0,0-4.145,0.268-4.145-3.445
	c0-3.722,4.568-3.579,4.568-3.579h81.406L211.692,49.83z"/>
<g>
	<path fill="#413F42" d="M245.145,36.972c18.103,0,36.004,0,53.904,0c1.122,0,0.91-0.055,0.166,0.568
		c-2.334,1.777-4.619,3.625-7.035,5.282c-0.612,0.42-1.639,0.31-2.476,0.312c-8.067,0.02-16.134-0.04-24.2,0.024
		c-12.156,0.096-24.312,0.251-36.467,0.458c-0.88,0.015-1.894,0.472-2.593,1.037c-1.694,1.368-3.239,2.921-4.844,4.4
		c0.105,0.229,0.21,0.458,0.315,0.687c20.137,0,40.273,0,60.41,0c1.18,0,1.392-0.164,0.231,0.711
		c-2.339,1.8-4.626,3.676-7.053,5.349c-0.668,0.461-1.755,0.427-2.65,0.429c-13.444,0.025-26.889-0.008-40.333,0.027
		c-12.022,0.032-24.044,0.176-36.065,0.138c-1.344-0.004-2.838-0.637-3.996-1.389c-2.12-1.374-4.041-3.054-6.482-4.945
		c1.083-0.081,1.654-0.16,2.225-0.162c7.147-0.02,14.294,0.023,21.439-0.097c1.052-0.018,2.269-0.58,3.098-1.266
		c1.727-1.431,3.245-3.114,5.16-5c-0.998-0.086-1.583-0.181-2.167-0.181c-24.766-0.007-49.532-0.009-74.298-0.003
		c-2.779,0.001-4.282,1.184-4.268,3.29c0.013,1.988,1.452,3.239,3.883,3.244c9.269,0.021,18.54-0.045,27.808,0.07
		c1.35,0.017,2.929,0.53,3.998,1.344c9.568,7.279,19.045,14.677,28.747,22.194c-1.318,1.711-2.586,3.357-3.967,5.149
		c-4.645-3.591-9.158-7.079-13.671-10.57c-4.42-3.419-8.787-6.912-13.296-10.209c-1.093-0.799-2.651-1.327-4.004-1.346
		c-8.489-0.12-16.982-0.02-25.473-0.076c-6.35-0.041-10.789-4.385-10.583-10.21c0.159-4.506,3.531-8.417,7.984-9.178
		c1.109-0.189,2.25-0.256,3.377-0.259c8.279-0.021,16.559,0.045,24.836-0.07c1.29-0.018,2.791-0.525,3.818-1.303
		c8.341-6.327,16.591-12.773,24.871-19.179c0.659-0.51,1.336-0.998,2.138-1.596c1.315,1.668,2.572,3.263,3.999,5.073
		c-7.154,5.546-14.227,11.029-21.734,16.849c1.019,0.103,1.577,0.209,2.134,0.208c13.726-0.024,27.453-0.039,41.178-0.14
		L245.145,36.972z"/>
</g>
<path opacity="0.2" fill="none" stroke="#01579B" stroke-width="21" stroke-linecap="round" stroke-linejoin="round" stroke-miterlimit="10" d="
	M114.332,45.299c-37.973,3.208-55.984,32.157-55.984,32.157c-32.896,38.874-23.997,95.688,13.895,134.437
	c16.286,16.64,38.187,25.892,61.655,26.01c0.177,0,0.325,0,0.502,0c23.705,0,45.961-9.222,62.749-26.01
	c13.448-13.448,20.867-31.33,20.867-50.365c-0.03-19.005-7.448-36.887-20.897-50.365c-10.877-10.877-25.33-16.877-40.7-16.877
	s-29.823,6-40.7,16.877c-8.808,8.808-13.655,20.512-13.655,32.985s4.847,24.177,13.655,32.985
	c7.153,7.153,16.67,11.113,26.808,11.113c10.138,0,19.655-3.931,26.808-11.113"/>
<path fill="none" stroke="#01579B" stroke-width="3" stroke-linecap="round" stroke-linejoin="round" stroke-miterlimit="10" stroke-dasharray="3,13,5,13,17" d="
	M114.332,45.299c-37.973,3.208-55.984,32.157-55.984,32.157c-32.896,38.874-23.997,95.688,13.895,134.437
	c16.286,16.64,38.187,25.892,61.655,26.01c0.177,0,0.325,0,0.502,0c23.705,0,45.961-9.222,62.749-26.01
	c13.448-13.448,20.867-31.33,20.867-50.365c-0.03-19.005-7.448-36.887-20.897-50.365c-10.877-10.877-25.33-16.877-40.7-16.877
	s-29.823,6-40.7,16.877c-8.808,8.808-13.655,20.512-13.655,32.985s4.847,24.177,13.655,32.985
	c7.153,7.153,16.67,11.113,26.808,11.113c10.138,0,19.655-3.931,26.808-11.113c12.059-12.059,12.059-31.685,0-43.714
	c-9.872-9.872-25.951-9.872-35.823,0c-8.128,8.128-8.128,21.37,0,29.498c6.739,6.739,17.704,6.739,24.414,0"/>
<polygon fill="#FFFFFF" points="189.72,194.566 121.879,208.52 121.879,125.957 173.242,113.166 "/>
<g>
	<path fill="#5D5D5D" d="M170.907,144.678h-41.726c-1.081,0-1.955,0.873-1.955,1.955v51.166c0,1.081,0.873,1.955,1.955,1.955h41.712
		c1.081,0,1.955-0.873,1.955-1.955v-51.166C172.862,145.552,171.988,144.678,170.907,144.678z M154.106,195.844h-8.123v-10.3h8.123
		V195.844z M168.952,195.844h-10.924V183.59c0-1.081-0.873-1.955-1.955-1.955h-12.046c-1.081,0-1.955,0.873-1.955,1.955v12.254
		H131.15v-47.257h37.803V195.844L168.952,195.844z"/>
	<path fill="#5D5D5D" d="M153.732,155.976h9.773c1.081,0,1.955-0.873,1.955-1.955s-0.859-1.955-1.941-1.955h-9.773
		c-1.081,0-1.955,0.873-1.955,1.955S152.664,155.976,153.732,155.976z"/>
	<path fill="#5D5D5D" d="M136.57,155.976h9.773c1.081,0,1.955-0.873,1.955-1.955s-0.873-1.955-1.955-1.955h-9.773
		c-1.081,0-1.955,0.873-1.955,1.955S135.489,155.976,136.57,155.976z"/>
	<path fill="#5D5D5D" d="M153.732,163.365h9.773c1.081,0,1.955-0.873,1.955-1.955s-0.873-1.955-1.955-1.955h-9.773
		c-1.081,0-1.955,0.873-1.955,1.955S152.664,163.365,153.732,163.365z"/>
	<path fill="#5D5D5D" d="M136.57,163.365h9.773c1.081,0,1.955-0.873,1.955-1.955s-0.873-1.955-1.955-1.955h-9.773
		c-1.081,0-1.955,0.873-1.955,1.955S135.489,163.365,136.57,163.365z"/>
	<path fill="#5D5D5D" d="M153.732,170.753h9.773c1.081,0,1.955-0.873,1.955-1.955s-0.873-1.955-1.955-1.955h-9.773
		c-1.081,0-1.955,0.873-1.955,1.955S152.664,170.753,153.732,170.753z"/>
	<path fill="#5D5D5D" d="M136.57,170.753h9.773c1.081,0,1.955-0.873,1.955-1.955s-0.873-1.955-1.955-1.955h-9.773
		c-1.081,0-1.955,0.873-1.955,1.955S135.489,170.753,136.57,170.753z"/>
	<path fill="#5D5D5D" d="M153.732,178.142h9.773c1.081,0,1.955-0.873,1.955-1.955s-0.873-1.955-1.955-1.955h-9.773
		c-1.081,0-1.955,0.873-1.955,1.955S152.664,178.142,153.732,178.142z"/>
	<path fill="#5D5D5D" d="M136.57,178.142h9.773c1.081,0,1.955-0.873,1.955-1.955s-0.873-1.955-1.955-1.955h-9.773
		c-1.081,0-1.955,0.873-1.955,1.955S135.489,178.142,136.57,178.142z"/>
</g>
<path fill="#00897B" d="M142.957,135.055h3.974v3.974c0,1.722,1.391,3.113,3.113,3.113s3.113-1.391,3.113-3.113v-3.974h3.974
	c1.722,0,3.113-1.391,3.113-3.113c0-1.722-1.391-3.113-3.113-3.113h-3.974v-3.974c0-1.722-1.391-3.113-3.113-3.113
	s-3.113,1.391-3.113,3.113v3.974h-3.974c-1.722,0-3.113,1.391-3.113,3.113C139.844,133.664,141.235,135.055,142.957,135.055z"/>
</svg>
