<?xml version="1.0" encoding="utf-8"?>
<!-- Generator: Adobe Illustrator 17.0.0, SVG Export Plug-In . SVG Version: 6.00 Build 0)  -->
<!DOCTYPE svg PUBLIC "-//W3C//DTD SVG 1.1//EN" "http://www.w3.org/Graphics/SVG/1.1/DTD/svg11.dtd">
<svg version="1.1" id="Layer_1" xmlns="http://www.w3.org/2000/svg" xmlns:xlink="http://www.w3.org/1999/xlink" x="0px" y="0px"
	 width="179.333px" height="270.692px" viewBox="0 0 179.333 270.692" enable-background="new 0 0 179.333 270.692"
	 xml:space="preserve">
<pattern  x="-3021" y="-712.975" width="76" height="76" patternUnits="userSpaceOnUse" id="New_Pattern_Swatch_2" viewBox="0 -76 76 76" overflow="visible">
	<g>
		<polygon fill="none" points="0,0 76,0 76,-76 0,-76 		"/>
		<polygon fill="#EB233F" points="76,0 0,0 0,-76 76,-76 		"/>
	</g>
</pattern>
<g>
	<pattern  id="SVGID_2_" xlink:href="#New_Pattern_Swatch_2" patternTransform="matrix(1.1755 0 0 1.1755 1136.6981 1066.4019)">
	</pattern>
	<path fill="url(#SVGID_2_)" stroke="#EB233F" d="M145.293,217.625c-36.911,0-73.822,0-110.734,0c0-61.732,0-123.463,0-185.195
		c36.911,0,73.822,0,110.734,0c0.012,0.333,0.034,0.667,0.034,1c0.001,61.065,0.001,122.129,0,183.194
		C145.327,216.958,145.305,217.292,145.293,217.625z M61.058,109.375c0.069,0.019,0.137,0.037,0.206,0.056
		c7.07-16.816,14.14-33.633,21.273-50.599c-0.448,0-0.744,0-1.041,0c-6.466,0-12.933,0.001-19.399,0.001
		c-1.04,0-1.038-0.001-1.038,1.049c0,16.067,0,32.135,0,48.202C61.058,108.515,61.058,108.945,61.058,109.375z M118.832,58.901
		c-7.143,0-14.202,0-21.38,0c7.105,16.915,14.167,33.728,21.229,50.541c0.05-0.016,0.101-0.033,0.151-0.049
		C118.832,92.586,118.832,75.78,118.832,58.901z M103.654,109.735c-4.571-10.782-9.078-21.412-13.679-32.263
		c-3.179,7.441-6.273,14.684-9.417,22.044c0.494,0,0.801,0,1.108,0c2.706-0.001,5.412,0.014,8.118-0.014
		c0.582-0.006,0.856,0.19,1.067,0.735c1.141,2.947,2.315,5.882,3.51,8.808c0.113,0.276,0.442,0.657,0.676,0.66
		C97.845,109.751,100.652,109.735,103.654,109.735z M100.805,136.649c2.138,2.399,4.876,1.936,6.154-1.046
		c0.33-0.77,0.565-1.604,0.694-2.431c0.359-2.292,0.303-4.569-0.69-6.723c-0.748-1.623-2.087-2.393-3.655-2.005
		c-0.731,0.181-1.381,0.689-2.106,1.068c0-0.165,0-0.412,0-0.659c0.001-1.722,0.013-3.445-0.014-5.167
		c-0.003-0.22-0.206-0.619-0.332-0.626c-1.015-0.052-2.033-0.029-3.123-0.029c0,6.38,0,12.638,0,18.935c0.933,0,1.872,0,2.835,0
		C100.652,137.509,100.727,137.09,100.805,136.649z M80.662,125.524c-1.12-1.254-2.343-1.473-3.617-0.861
		c-0.641,0.308-1.237,0.845-1.671,1.416c-0.931,1.224-1.224,2.701-1.297,4.208c-0.108,2.202-0.024,4.38,1.24,6.311
		c1.34,2.047,3.813,2.199,5.412,0.353c0.073-0.084,0.18-0.138,0.299-0.226c0.085,0.464,0.157,0.858,0.223,1.22
		c1.009,0,1.946,0,2.826,0c0-6.322,0-12.578,0-18.857c-1.193,0-2.28,0-3.414,0C80.662,121.207,80.662,123.258,80.662,125.524z
		 M64.874,137.984c0.228-1.153,0.489-2.23,0.64-3.322c0.109-0.793,0.369-1.219,1.262-1.087c0.53,0.078,1.082,0.044,1.621,0.007
		c0.522-0.036,0.784,0.101,0.863,0.679c0.143,1.042,0.36,2.076,0.597,3.102c0.056,0.24,0.306,0.605,0.486,0.617
		c0.969,0.061,1.943,0.029,2.973,0.029c-0.052-0.371-0.076-0.652-0.131-0.926c-1.125-5.645-2.258-11.289-3.373-16.936
		c-0.1-0.508-0.34-0.67-0.839-0.652c-0.901,0.032-1.805,0.039-2.706-0.003c-0.561-0.026-0.732,0.199-0.846,0.723
		c-1.079,4.972-2.192,9.936-3.29,14.904c-0.207,0.937-0.391,1.88-0.595,2.865C62.699,137.984,63.749,137.984,64.874,137.984z
		 M85.788,131.359c0.141,0.962,0.215,1.939,0.436,2.882c0.558,2.384,2.188,3.851,4.315,3.98c2.245,0.136,4.081-1.069,4.868-3.373
		c0.866-2.536,0.849-5.109-0.176-7.607c-0.696-1.695-1.97-2.732-3.863-2.864c-1.935-0.135-3.39,0.688-4.387,2.31
		C86.106,128.11,85.857,129.699,85.788,131.359z M112.54,132.434c1.906,0,3.757-0.016,5.607,0.01
		c0.498,0.007,0.729-0.154,0.706-0.647c-0.055-1.176-0.022-2.366-0.198-3.524c-0.179-1.179-0.679-2.269-1.65-3.056
		c-2.006-1.627-5.199-0.992-6.625,1.395c-1.498,2.506-1.618,5.205-0.806,7.961c0.377,1.28,1.115,2.326,2.334,2.936
		c2.001,1,4.052,0.71,6.095,0.131c0.116-0.033,0.267-0.272,0.249-0.393c-0.104-0.703-0.254-1.399-0.386-2.085
		c-0.896,0.127-1.702,0.32-2.513,0.341C113.506,135.552,112.454,134.41,112.54,132.434z M125.729,61.355
		c0.008-1.369-1.097-2.49-2.488-2.525c-1.401-0.035-2.574,1.1-2.586,2.504c-0.012,1.395,1.139,2.571,2.522,2.577
		C124.562,63.917,125.721,62.756,125.729,61.355z"/>
	<path fill="#FFFFFF" d="M61.058,109.375c0-0.43,0-0.861,0-1.291c0-16.067,0-32.135,0-48.202c0-1.05-0.002-1.049,1.038-1.049
		c6.466,0,12.933,0,19.399-0.001c0.297,0,0.594,0,1.041,0c-7.133,16.966-14.203,33.782-21.273,50.599
		C61.195,109.413,61.126,109.394,61.058,109.375z"/>
	<path fill="#FFFFFF" d="M118.832,58.901c0,16.879,0,33.685,0,50.492c-0.05,0.016-0.101,0.033-0.151,0.049
		c-7.062-16.813-14.124-33.626-21.229-50.541C104.63,58.901,111.689,58.901,118.832,58.901z"/>
	<path fill="#FFFFFF" d="M103.654,109.735c-3.002,0-5.81,0.016-8.616-0.03c-0.234-0.004-0.563-0.385-0.676-0.66
		c-1.195-2.926-2.369-5.86-3.51-8.808c-0.211-0.545-0.486-0.741-1.067-0.735c-2.706,0.028-5.412,0.013-8.118,0.014
		c-0.307,0-0.614,0-1.108,0c3.144-7.36,6.238-14.602,9.417-22.044C94.576,88.323,99.083,98.953,103.654,109.735z"/>
	<path fill="#FFFFFF" d="M100.805,136.649c-0.079,0.441-0.153,0.86-0.235,1.318c-0.963,0-1.902,0-2.835,0c0-6.297,0-12.555,0-18.935
		c1.089,0,2.108-0.023,3.123,0.029c0.126,0.006,0.329,0.406,0.332,0.626c0.027,1.722,0.014,3.444,0.014,5.167
		c0,0.247,0,0.494,0,0.659c0.725-0.379,1.375-0.887,2.106-1.068c1.568-0.388,2.907,0.382,3.655,2.005
		c0.993,2.154,1.049,4.431,0.69,6.723c-0.13,0.828-0.364,1.661-0.694,2.431C105.681,138.585,102.943,139.048,100.805,136.649z
		 M101.133,131.297c0.075,0.933,0.097,1.882,0.244,2.812c0.104,0.66,0.479,1.217,1.25,1.26c0.748,0.041,1.127-0.48,1.323-1.086
		c0.632-1.957,0.655-3.933,0.011-5.895c-0.215-0.654-0.663-1.177-1.396-1.109c-0.679,0.063-1.088,0.612-1.187,1.256
		C101.239,129.44,101.211,130.363,101.133,131.297z"/>
	<path fill="#FFFFFF" d="M80.662,125.524c0-2.266,0-4.317,0-6.436c1.134,0,2.221,0,3.414,0c0,6.279,0,12.535,0,18.857
		c-0.88,0-1.817,0-2.826,0c-0.066-0.362-0.138-0.757-0.223-1.22c-0.119,0.089-0.226,0.143-0.299,0.226
		c-1.599,1.845-4.072,1.694-5.412-0.353c-1.264-1.931-1.348-4.11-1.24-6.311c0.074-1.507,0.367-2.984,1.297-4.208
		c0.434-0.571,1.03-1.109,1.671-1.416C78.32,124.051,79.542,124.27,80.662,125.524z M80.647,131.366
		c0.016-0.001,0.033-0.002,0.049-0.002c-0.05-0.896-0.041-1.801-0.169-2.687c-0.099-0.68-0.448-1.289-1.229-1.415
		c-0.569-0.091-1.197,0.44-1.417,1.306c-0.213,0.839-0.367,1.712-0.393,2.575c-0.037,1.229-0.022,2.487,0.685,3.58
		c0.62,0.958,1.702,0.876,2.164-0.168c0.172-0.389,0.265-0.834,0.297-1.26C80.683,132.655,80.647,132.009,80.647,131.366z"/>
	<path fill="#FFFFFF" d="M64.874,137.984c-1.125,0-2.176,0-3.336,0c0.204-0.985,0.387-1.927,0.595-2.865
		c1.098-4.968,2.212-9.932,3.29-14.904c0.114-0.525,0.285-0.75,0.846-0.723c0.9,0.042,1.805,0.035,2.706,0.003
		c0.499-0.018,0.739,0.144,0.839,0.652c1.115,5.647,2.248,11.291,3.373,16.936c0.055,0.274,0.079,0.554,0.131,0.926
		c-1.03,0-2.004,0.032-2.973-0.029c-0.18-0.011-0.431-0.377-0.486-0.617c-0.238-1.025-0.455-2.06-0.597-3.102
		c-0.079-0.578-0.341-0.714-0.863-0.679c-0.539,0.037-1.091,0.071-1.621-0.007c-0.893-0.132-1.153,0.294-1.262,1.087
		C65.363,135.754,65.102,136.831,64.874,137.984z M67.575,123.455c-0.04-0.001-0.08-0.002-0.12-0.003
		c-0.431,2.458-0.861,4.915-1.297,7.401c0.883,0,1.698,0,2.6,0C68.358,128.351,67.967,125.903,67.575,123.455z"/>
	<path fill="#FFFFFF" d="M85.788,131.359c0.069-1.66,0.318-3.249,1.193-4.673c0.997-1.622,2.453-2.445,4.387-2.31
		c1.893,0.132,3.167,1.169,3.863,2.864c1.025,2.498,1.042,5.071,0.176,7.607c-0.787,2.304-2.623,3.51-4.868,3.373
		c-2.127-0.129-3.757-1.597-4.315-3.98C86.003,133.298,85.929,132.321,85.788,131.359z M89.159,131.276
		c0.169,1.042,0.282,2.114,0.535,3.153c0.145,0.593,0.503,1.145,1.281,1.119c0.711-0.024,0.963-0.545,1.122-1.094
		c0.606-2.094,0.616-4.2,0.002-6.294c-0.171-0.583-0.481-1.142-1.185-1.144c-0.741-0.002-1.095,0.582-1.237,1.189
		C89.446,129.196,89.332,130.216,89.159,131.276z"/>
	<path fill="#FFFFFF" d="M112.54,132.434c-0.086,1.976,0.966,3.118,2.813,3.069c0.811-0.022,1.617-0.214,2.513-0.341
		c0.132,0.687,0.282,1.383,0.386,2.085c0.018,0.121-0.133,0.36-0.249,0.393c-2.043,0.579-4.094,0.869-6.095-0.131
		c-1.22-0.61-1.957-1.656-2.334-2.936c-0.812-2.756-0.692-5.455,0.806-7.961c1.426-2.387,4.619-3.022,6.625-1.395
		c0.97,0.787,1.471,1.877,1.65,3.056c0.176,1.158,0.143,2.348,0.198,3.524c0.023,0.493-0.208,0.654-0.706,0.647
		C116.297,132.418,114.446,132.434,112.54,132.434z M112.33,129.915c1.278,0,2.317,0,3.516,0c-0.195-0.796-0.28-1.545-0.564-2.21
		c-0.456-1.067-1.562-1.154-2.139-0.147C112.755,128.236,112.615,129.057,112.33,129.915z"/>
	<path fill="#FFFFFF" d="M125.729,61.355c-0.008,1.401-1.167,2.562-2.551,2.556c-1.383-0.006-2.535-1.182-2.522-2.577
		c0.012-1.404,1.185-2.54,2.586-2.504C124.632,58.865,125.737,59.987,125.729,61.355z M121.272,61.359
		c-0.003,1.076,0.88,1.995,1.929,2.006c1.036,0.011,1.935-0.92,1.932-2.001c-0.003-1.076-0.904-2.019-1.93-2.02
		C122.18,59.343,121.275,60.288,121.272,61.359z"/>
	<pattern  id="SVGID_4_" xlink:href="#New_Pattern_Swatch_2" patternTransform="matrix(1.1755 0 0 1.1755 1136.6981 1066.4019)">
	</pattern>
	<path fill="#EB233F" stroke="url(#SVGID_4_)" d="M101.133,131.297c0.077-0.934,0.106-1.857,0.244-2.763
		c0.098-0.644,0.508-1.193,1.187-1.256c0.734-0.068,1.182,0.456,1.396,1.109c0.644,1.962,0.62,3.938-0.011,5.895
		c-0.196,0.606-0.575,1.128-1.323,1.086c-0.771-0.043-1.145-0.599-1.25-1.26C101.23,133.179,101.208,132.23,101.133,131.297z"/>
	<pattern  id="SVGID_6_" xlink:href="#New_Pattern_Swatch_2" patternTransform="matrix(1.1755 0 0 1.1755 1136.6981 1066.4019)">
	</pattern>
	<path fill="#EB233F" stroke="url(#SVGID_6_)" d="M80.647,131.366c0,0.643,0.036,1.289-0.013,1.928
		c-0.033,0.427-0.125,0.871-0.297,1.26c-0.462,1.045-1.544,1.127-2.164,0.168c-0.707-1.092-0.722-2.351-0.685-3.58
		c0.026-0.863,0.18-1.736,0.393-2.575c0.22-0.866,0.848-1.397,1.417-1.306c0.781,0.125,1.13,0.734,1.229,1.415
		c0.128,0.885,0.119,1.79,0.169,2.687C80.68,131.364,80.664,131.365,80.647,131.366z"/>
	<pattern  id="SVGID_8_" xlink:href="#New_Pattern_Swatch_2" patternTransform="matrix(1.1755 0 0 1.1755 1136.6981 1066.4019)">
	</pattern>
	<path fill="#EB233F" stroke="url(#SVGID_8_)" d="M67.575,123.455c0.391,2.448,0.783,4.895,1.183,7.398c-0.902,0-1.717,0-2.6,0
		c0.436-2.486,0.866-4.943,1.297-7.401C67.495,123.453,67.535,123.454,67.575,123.455z"/>
	<pattern  id="SVGID_10_" xlink:href="#New_Pattern_Swatch_2" patternTransform="matrix(1.1755 0 0 1.1755 1136.6981 1066.4019)">
	</pattern>
	<path fill="#EB233F" stroke="url(#SVGID_10_)" d="M89.159,131.276c0.173-1.061,0.287-2.08,0.519-3.072
		c0.142-0.607,0.496-1.192,1.237-1.189c0.704,0.002,1.014,0.561,1.185,1.144c0.614,2.094,0.604,4.2-0.002,6.294
		c-0.159,0.549-0.411,1.07-1.122,1.094c-0.779,0.026-1.137-0.525-1.281-1.119C89.441,133.391,89.328,132.318,89.159,131.276z"/>
	<pattern  id="SVGID_12_" xlink:href="#New_Pattern_Swatch_2" patternTransform="matrix(1.1755 0 0 1.1755 1136.6981 1066.4019)">
	</pattern>
	<path fill="#EB233F" stroke="url(#SVGID_12_)" d="M112.33,129.915c0.285-0.858,0.424-1.679,0.813-2.357
		c0.577-1.007,1.683-0.919,2.139,0.147c0.284,0.664,0.369,1.414,0.564,2.21C114.647,129.915,113.608,129.915,112.33,129.915z"/>
	<pattern  id="SVGID_14_" xlink:href="#New_Pattern_Swatch_2" patternTransform="matrix(1.1755 0 0 1.1755 1136.6981 1066.4019)">
	</pattern>
	<path fill="#EB233F" stroke="url(#SVGID_14_)" d="M121.272,61.359c0.003-1.071,0.908-2.016,1.93-2.015
		c1.026,0.001,1.927,0.944,1.93,2.02c0.003,1.081-0.896,2.012-1.932,2.001C122.152,63.354,121.269,62.435,121.272,61.359z
		 M122.964,61.483c0.279,0.359,0.455,0.594,0.64,0.822c0.153,0.189,0.317,0.369,0.476,0.553c0.106-0.642,0.035-1.127-0.008-1.616
		c-0.031-0.347,0.081-0.945-0.053-1.002c-0.467-0.198-1.016-0.27-1.527-0.246c-0.124,0.006-0.267,0.556-0.32,0.87
		c-0.055,0.324-0.049,0.669-0.002,0.996c0.045,0.317,0.176,0.622,0.269,0.933c0.116-0.285,0.232-0.57,0.348-0.856
		C122.806,61.892,122.823,61.845,122.964,61.483z"/>
	<path fill="#FFFFFF" d="M122.964,61.483c-0.141,0.362-0.158,0.409-0.177,0.456c-0.116,0.285-0.232,0.57-0.348,0.856
		c-0.093-0.31-0.224-0.616-0.269-0.933c-0.047-0.327-0.053-0.672,0.002-0.996c0.053-0.314,0.196-0.864,0.32-0.87
		c0.511-0.024,1.06,0.048,1.527,0.246c0.134,0.057,0.022,0.655,0.053,1.002c0.043,0.488,0.115,0.974,0.008,1.616
		c-0.159-0.184-0.323-0.365-0.476-0.553C123.419,62.077,123.243,61.842,122.964,61.483z M122.986,60.298
		c-0.088,0.07-0.175,0.14-0.263,0.21c0.112,0.215,0.223,0.429,0.335,0.644c0.188-0.111,0.376-0.223,0.564-0.334
		C123.41,60.645,123.198,60.472,122.986,60.298z"/>
	<pattern  id="SVGID_15_" xlink:href="#New_Pattern_Swatch_2" patternTransform="matrix(1.1755 0 0 1.1755 1136.6981 1066.4019)">
	</pattern>
	<path fill="#EB233F" stroke="url(#SVGID_15_)" d="M122.986,60.298c0.212,0.173,0.424,0.346,0.637,0.519
		c-0.188,0.111-0.376,0.223-0.564,0.334c-0.112-0.215-0.223-0.429-0.335-0.644C122.81,60.439,122.898,60.369,122.986,60.298z"/>
</g>
<circle fill="#FFFFFF" cx="89.5" cy="228.553" r="71.472"/>
<pattern  id="SVGID_16_" xlink:href="#New_Pattern_Swatch_2" patternTransform="matrix(1.1755 0 0 1.1755 1136.6981 1066.4019)">
</pattern>
<polyline fill="none" stroke="url(#SVGID_16_)" stroke-width="4" stroke-linecap="round" stroke-dasharray="10,8,6,1,16" points="
	143,166.025 143,238.025 36,238.025 36,166.025 "/>
<g>
	<path fill="#FFC107" d="M109.507,180.655H71.978c-3.272,0-5.926,2.653-5.926,5.926v20.74c0,3.272,2.653,5.926,5.926,5.926h37.529
		c3.272,0,5.926-2.653,5.926-5.926v-20.74C115.432,183.308,112.779,180.655,109.507,180.655z M86.792,203.272v-13.278l11.499,6.639
		L86.792,203.272z"/>
</g>
</svg>
