<?xml version="1.0" encoding="utf-8"?>
<!-- Generator: Adobe Illustrator 17.0.0, SVG Export Plug-In . SVG Version: 6.00 Build 0)  -->
<!DOCTYPE svg PUBLIC "-//W3C//DTD SVG 1.1//EN" "http://www.w3.org/Graphics/SVG/1.1/DTD/svg11.dtd">
<svg version="1.1" id="Layer_1" xmlns="http://www.w3.org/2000/svg" xmlns:xlink="http://www.w3.org/1999/xlink" x="0px" y="0px"
	 width="221.333px" height="308.155px" viewBox="0 0 221.333 308.155" enable-background="new 0 0 221.333 308.155"
	 xml:space="preserve">
<path fill="#09345C" d="M127.981,247.07c0.71,0,1.291-0.581,1.291-1.291v-38.158c0-3.809-3.099-6.908-6.908-6.908
	c-3.809,0-6.908,3.099-6.908,6.908v3.357c0,0.71,0.581,1.291,1.291,1.291c0.71,0,1.291-0.581,1.291-1.291v-3.357
	c0-2.389,1.937-4.326,4.326-4.326c2.389,0,4.326,1.937,4.326,4.326v38.158C126.689,246.489,127.27,247.07,127.981,247.07z"/>
<rect x="46.333" y="71.822" opacity="0.25" fill="#DFEEF3" width="133" height="190"/>
<path fill="#FFB404" d="M124.26,180.5c0-10.307-6.845-19.046-16.228-21.909c3.719-2.262,6.207-6.353,6.207-11.016
	c0-7.104-5.778-12.885-12.883-12.885c-7.104,0-12.884,5.781-12.884,12.884c0,4.663,2.488,8.754,6.206,11.016
	c-9.382,2.865-16.228,11.603-16.228,21.91v28.632h5.726v40.084h34.359v-40.084h5.725V180.5z M101.356,140.417
	c0.483,0,0.959,0.049,1.416,0.143c1.777,1.807,2.878,4.281,2.878,7.016c0,2.734-1.101,5.206-2.876,7.014
	c-0.459,0.094-0.933,0.143-1.418,0.143c-3.947,0-7.158-3.211-7.158-7.158C94.198,143.629,97.409,140.417,101.356,140.417z
	 M84.175,180.5c0-9.472,7.706-17.179,17.18-17.179c1.566,0,3.082,0.215,4.525,0.608c2.876,3.352,3.939,7.98,4.262,13.706h-0.197
	v17.179h-17.18v-17.179h-5.726v25.768h-2.863V180.5z M104.218,243.489v-34.357h-5.725v34.357h-8.589v-34.357h2.862v-8.589h11.453
	V243.489h8.589l0,0H104.218z M115.67,203.406L115.67,203.406l2.864-0.001v0.001H115.67z"/>
<path fill="#FFC53A" d="M101.356,140.417c0.483,0,0.959,0.049,1.416,0.143c1.777,1.807,2.878,4.281,2.878,7.016
	c0,2.734-1.101,5.206-2.876,7.014c-0.459,0.094-0.933,0.143-1.418,0.143c-3.947,0-7.158-3.211-7.158-7.158
	C94.198,143.629,97.409,140.417,101.356,140.417z M84.175,180.5c0-9.472,7.706-17.179,17.18-17.179c1.566,0,3.082,0.215,4.525,0.608
	c2.876,3.352,3.939,7.98,4.262,13.706h-0.197v17.179h-17.18v-17.179h-5.726v25.768h-2.863V180.5z M104.218,243.489v-34.357h-5.725
	v34.357h-8.589v-34.357h2.862v-8.589h11.453V243.489h8.589l0,0H104.218z M115.67,203.406L115.67,203.406l2.864-0.001v0.001H115.67z"
	/>
<path fill="none" stroke="#09345C" stroke-width="3" stroke-miterlimit="10" d="M177.833,255.426c0,4.361-3.535,7.896-7.896,7.896
	H52.729c-4.361,0-7.896-3.535-7.896-7.896V53.217c0-4.361,3.535-7.896,7.896-7.896h117.209c4.361,0,7.896,3.535,7.896,7.896V255.426
	z"/>
<line fill="none" stroke="#09345C" stroke-width="3" stroke-linecap="round" stroke-miterlimit="10" stroke-dasharray="9,22,40,7,20" x1="177.333" y1="71.322" x2="46.333" y2="71.322"/>
<path fill="none" stroke="#09345C" stroke-width="2" stroke-linecap="round" stroke-miterlimit="10" d="M86.333,58.002
	c0,2.109-1.71,3.819-3.819,3.819H58.152c-2.109,0-3.819-1.71-3.819-3.819v-0.362c0-2.109,1.71-3.819,3.819-3.819h24.362
	c2.109,0,3.819,1.71,3.819,3.819V58.002z"/>
<circle fill="none" stroke="#09345C" stroke-width="2" stroke-linecap="round" stroke-miterlimit="10" cx="141.772" cy="58.467" r="3.694"/>
<circle fill="none" stroke="#09345C" stroke-width="2" stroke-linecap="round" stroke-miterlimit="10" cx="155.307" cy="58.467" r="3.694"/>
<ellipse fill="#D8F3F9" cx="73.074" cy="247.07" rx="11.102" ry="2.147"/>
<path fill="none" stroke="#616161" stroke-width="2" stroke-linecap="round" stroke-miterlimit="10" stroke-dasharray="6,3,4,4,20" d="
	M109.162,127.24c-4.449-4.449-11.65-4.449-16.099,0"/>
<path fill="none" stroke="#616161" stroke-width="2" stroke-linecap="round" stroke-miterlimit="10" stroke-dasharray="6,3,4,4,20" d="
	M113.496,122.87c-6.845-6.845-17.922-6.845-24.766,0"/>
<path fill="none" stroke="#616161" stroke-width="2" stroke-linecap="round" stroke-miterlimit="10" stroke-dasharray="6,3,4,4,20" d="
	M118.985,118.74c-9.878-9.878-25.866-9.878-35.744,0"/>
<path fill="none" stroke="#616161" stroke-width="2" stroke-linecap="round" stroke-miterlimit="10" stroke-dasharray="6,3,4,4,20" d="
	M106.851,132.029c-3.172-3.172-8.305-3.172-11.477,0"/>
</svg>
